<mxfile host="app.diagrams.net" modified="2021-02-20T18:37:57.173Z" agent="5.0 (Windows NT 10.0; Win64; x64) AppleWebKit/537.36 (KHTML, like Gecko) Chrome/65.0.3325.146 Safari/537.36" etag="c2IyaIiGPbvISQLBdZGc" version="14.4.2" type="github">
  <diagram id="mzZVyo7BjY55Umvk1tv_" name="Page-1">
    <mxGraphModel dx="1865" dy="1680" grid="1" gridSize="10" guides="1" tooltips="1" connect="1" arrows="1" fold="1" page="1" pageScale="1" pageWidth="827" pageHeight="1169" math="0" shadow="0">
      <root>
        <mxCell id="0" />
        <mxCell id="1" parent="0" />
        <mxCell id="BVIDle6o-jh2AiLQvKVz-5" value="add()" style="swimlane;html=1;startSize=20;horizontal=1;containerType=tree;newEdgeStyle={&quot;edgeStyle&quot;:&quot;elbowEdgeStyle&quot;,&quot;startArrow&quot;:&quot;none&quot;,&quot;endArrow&quot;:&quot;none&quot;};gradientColor=#ffffff;fontSize=20;" vertex="1" parent="1">
          <mxGeometry x="-690" y="-1100" width="150" height="160" as="geometry" />
        </mxCell>
        <mxCell id="BVIDle6o-jh2AiLQvKVz-6" value="" style="shape=table;html=1;whiteSpace=wrap;startSize=0;container=1;collapsible=0;childLayout=tableLayout;gradientColor=#ffffff;fontSize=15;" vertex="1" parent="BVIDle6o-jh2AiLQvKVz-5">
          <mxGeometry y="20" width="150" height="140" as="geometry" />
        </mxCell>
        <mxCell id="BVIDle6o-jh2AiLQvKVz-7" value="" style="shape=partialRectangle;html=1;whiteSpace=wrap;collapsible=0;dropTarget=0;pointerEvents=0;fillColor=none;top=0;left=0;bottom=0;right=0;points=[[0,0.5],[1,0.5]];portConstraint=eastwest;" vertex="1" parent="BVIDle6o-jh2AiLQvKVz-6">
          <mxGeometry width="150" height="35" as="geometry" />
        </mxCell>
        <mxCell id="BVIDle6o-jh2AiLQvKVz-8" value="局部变量表" style="shape=partialRectangle;html=1;whiteSpace=wrap;connectable=0;fillColor=none;top=0;left=0;bottom=0;right=0;overflow=hidden;fontSize=20;" vertex="1" parent="BVIDle6o-jh2AiLQvKVz-7">
          <mxGeometry width="150" height="35" as="geometry" />
        </mxCell>
        <mxCell id="BVIDle6o-jh2AiLQvKVz-9" value="" style="shape=partialRectangle;html=1;whiteSpace=wrap;collapsible=0;dropTarget=0;pointerEvents=0;fillColor=none;top=0;left=0;bottom=0;right=0;points=[[0,0.5],[1,0.5]];portConstraint=eastwest;" vertex="1" parent="BVIDle6o-jh2AiLQvKVz-6">
          <mxGeometry y="35" width="150" height="33" as="geometry" />
        </mxCell>
        <mxCell id="BVIDle6o-jh2AiLQvKVz-10" value="操作数栈" style="shape=partialRectangle;html=1;whiteSpace=wrap;connectable=0;fillColor=none;top=0;left=0;bottom=0;right=0;overflow=hidden;fontSize=20;" vertex="1" parent="BVIDle6o-jh2AiLQvKVz-9">
          <mxGeometry width="150" height="33" as="geometry" />
        </mxCell>
        <mxCell id="BVIDle6o-jh2AiLQvKVz-11" style="shape=partialRectangle;html=1;whiteSpace=wrap;collapsible=0;dropTarget=0;pointerEvents=0;fillColor=none;top=0;left=0;bottom=0;right=0;points=[[0,0.5],[1,0.5]];portConstraint=eastwest;" vertex="1" parent="BVIDle6o-jh2AiLQvKVz-6">
          <mxGeometry y="68" width="150" height="39" as="geometry" />
        </mxCell>
        <mxCell id="BVIDle6o-jh2AiLQvKVz-12" value="&lt;font style=&quot;font-size: 20px&quot;&gt;动态连接&lt;/font&gt;" style="shape=partialRectangle;html=1;whiteSpace=wrap;connectable=0;fillColor=none;top=0;left=0;bottom=0;right=0;overflow=hidden;" vertex="1" parent="BVIDle6o-jh2AiLQvKVz-11">
          <mxGeometry width="150" height="39" as="geometry" />
        </mxCell>
        <mxCell id="BVIDle6o-jh2AiLQvKVz-13" style="shape=partialRectangle;html=1;whiteSpace=wrap;collapsible=0;dropTarget=0;pointerEvents=0;fillColor=none;top=0;left=0;bottom=0;right=0;points=[[0,0.5],[1,0.5]];portConstraint=eastwest;" vertex="1" parent="BVIDle6o-jh2AiLQvKVz-6">
          <mxGeometry y="107" width="150" height="33" as="geometry" />
        </mxCell>
        <mxCell id="BVIDle6o-jh2AiLQvKVz-14" value="方法返回地址" style="shape=partialRectangle;html=1;whiteSpace=wrap;connectable=0;fillColor=none;top=0;left=0;bottom=0;right=0;overflow=hidden;fontSize=20;" vertex="1" parent="BVIDle6o-jh2AiLQvKVz-13">
          <mxGeometry width="150" height="33" as="geometry" />
        </mxCell>
        <mxCell id="BVIDle6o-jh2AiLQvKVz-82" style="edgeStyle=orthogonalEdgeStyle;rounded=0;orthogonalLoop=1;jettySize=auto;html=1;entryX=0.5;entryY=0;entryDx=0;entryDy=0;fontSize=15;" edge="1" parent="1" source="BVIDle6o-jh2AiLQvKVz-36" target="BVIDle6o-jh2AiLQvKVz-76">
          <mxGeometry relative="1" as="geometry" />
        </mxCell>
        <mxCell id="BVIDle6o-jh2AiLQvKVz-36" value="&lt;span style=&quot;font-weight: 400 ; background-color: rgb(255 , 255 , 255)&quot;&gt;&lt;font style=&quot;font-size: 20px&quot;&gt;iconst_3&lt;/font&gt;&lt;/span&gt;" style="swimlane;html=1;startSize=30;horizontal=1;containerType=tree;newEdgeStyle={&quot;edgeStyle&quot;:&quot;elbowEdgeStyle&quot;,&quot;startArrow&quot;:&quot;none&quot;,&quot;endArrow&quot;:&quot;none&quot;};fontSize=15;" vertex="1" parent="1">
          <mxGeometry x="-720" y="-1150" width="330" height="230" as="geometry" />
        </mxCell>
        <mxCell id="BVIDle6o-jh2AiLQvKVz-42" value="" style="rounded=0;whiteSpace=wrap;html=1;fontSize=20;" vertex="1" parent="BVIDle6o-jh2AiLQvKVz-36">
          <mxGeometry x="240" y="40" width="70" height="60" as="geometry" />
        </mxCell>
        <mxCell id="BVIDle6o-jh2AiLQvKVz-20" value="3" style="rounded=0;whiteSpace=wrap;html=1;fontSize=20;" vertex="1" parent="BVIDle6o-jh2AiLQvKVz-36">
          <mxGeometry x="240" y="150" width="70" height="60" as="geometry" />
        </mxCell>
        <mxCell id="BVIDle6o-jh2AiLQvKVz-48" style="edgeStyle=orthogonalEdgeStyle;rounded=0;orthogonalLoop=1;jettySize=auto;html=1;entryX=0;entryY=0.5;entryDx=0;entryDy=0;fontSize=15;" edge="1" parent="1" source="BVIDle6o-jh2AiLQvKVz-7" target="BVIDle6o-jh2AiLQvKVz-42">
          <mxGeometry relative="1" as="geometry" />
        </mxCell>
        <mxCell id="BVIDle6o-jh2AiLQvKVz-49" style="edgeStyle=orthogonalEdgeStyle;rounded=0;orthogonalLoop=1;jettySize=auto;html=1;entryX=0;entryY=0.5;entryDx=0;entryDy=0;fontSize=15;" edge="1" parent="1" source="BVIDle6o-jh2AiLQvKVz-9" target="BVIDle6o-jh2AiLQvKVz-20">
          <mxGeometry relative="1" as="geometry" />
        </mxCell>
        <mxCell id="BVIDle6o-jh2AiLQvKVz-66" value="add()" style="swimlane;html=1;startSize=20;horizontal=1;containerType=tree;newEdgeStyle={&quot;edgeStyle&quot;:&quot;elbowEdgeStyle&quot;,&quot;startArrow&quot;:&quot;none&quot;,&quot;endArrow&quot;:&quot;none&quot;};gradientColor=#ffffff;fontSize=20;" vertex="1" parent="1">
          <mxGeometry x="-690" y="-790" width="150" height="160" as="geometry" />
        </mxCell>
        <mxCell id="BVIDle6o-jh2AiLQvKVz-67" value="" style="shape=table;html=1;whiteSpace=wrap;startSize=0;container=1;collapsible=0;childLayout=tableLayout;gradientColor=#ffffff;fontSize=15;" vertex="1" parent="BVIDle6o-jh2AiLQvKVz-66">
          <mxGeometry y="20" width="150" height="140" as="geometry" />
        </mxCell>
        <mxCell id="BVIDle6o-jh2AiLQvKVz-68" value="" style="shape=partialRectangle;html=1;whiteSpace=wrap;collapsible=0;dropTarget=0;pointerEvents=0;fillColor=none;top=0;left=0;bottom=0;right=0;points=[[0,0.5],[1,0.5]];portConstraint=eastwest;" vertex="1" parent="BVIDle6o-jh2AiLQvKVz-67">
          <mxGeometry width="150" height="35" as="geometry" />
        </mxCell>
        <mxCell id="BVIDle6o-jh2AiLQvKVz-69" value="局部变量表" style="shape=partialRectangle;html=1;whiteSpace=wrap;connectable=0;fillColor=none;top=0;left=0;bottom=0;right=0;overflow=hidden;fontSize=20;" vertex="1" parent="BVIDle6o-jh2AiLQvKVz-68">
          <mxGeometry width="150" height="35" as="geometry" />
        </mxCell>
        <mxCell id="BVIDle6o-jh2AiLQvKVz-70" value="" style="shape=partialRectangle;html=1;whiteSpace=wrap;collapsible=0;dropTarget=0;pointerEvents=0;fillColor=none;top=0;left=0;bottom=0;right=0;points=[[0,0.5],[1,0.5]];portConstraint=eastwest;" vertex="1" parent="BVIDle6o-jh2AiLQvKVz-67">
          <mxGeometry y="35" width="150" height="33" as="geometry" />
        </mxCell>
        <mxCell id="BVIDle6o-jh2AiLQvKVz-71" value="操作数栈" style="shape=partialRectangle;html=1;whiteSpace=wrap;connectable=0;fillColor=none;top=0;left=0;bottom=0;right=0;overflow=hidden;fontSize=20;" vertex="1" parent="BVIDle6o-jh2AiLQvKVz-70">
          <mxGeometry width="150" height="33" as="geometry" />
        </mxCell>
        <mxCell id="BVIDle6o-jh2AiLQvKVz-72" style="shape=partialRectangle;html=1;whiteSpace=wrap;collapsible=0;dropTarget=0;pointerEvents=0;fillColor=none;top=0;left=0;bottom=0;right=0;points=[[0,0.5],[1,0.5]];portConstraint=eastwest;" vertex="1" parent="BVIDle6o-jh2AiLQvKVz-67">
          <mxGeometry y="68" width="150" height="39" as="geometry" />
        </mxCell>
        <mxCell id="BVIDle6o-jh2AiLQvKVz-73" value="&lt;font style=&quot;font-size: 20px&quot;&gt;动态连接&lt;/font&gt;" style="shape=partialRectangle;html=1;whiteSpace=wrap;connectable=0;fillColor=none;top=0;left=0;bottom=0;right=0;overflow=hidden;" vertex="1" parent="BVIDle6o-jh2AiLQvKVz-72">
          <mxGeometry width="150" height="39" as="geometry" />
        </mxCell>
        <mxCell id="BVIDle6o-jh2AiLQvKVz-74" style="shape=partialRectangle;html=1;whiteSpace=wrap;collapsible=0;dropTarget=0;pointerEvents=0;fillColor=none;top=0;left=0;bottom=0;right=0;points=[[0,0.5],[1,0.5]];portConstraint=eastwest;" vertex="1" parent="BVIDle6o-jh2AiLQvKVz-67">
          <mxGeometry y="107" width="150" height="33" as="geometry" />
        </mxCell>
        <mxCell id="BVIDle6o-jh2AiLQvKVz-75" value="方法返回地址" style="shape=partialRectangle;html=1;whiteSpace=wrap;connectable=0;fillColor=none;top=0;left=0;bottom=0;right=0;overflow=hidden;fontSize=20;" vertex="1" parent="BVIDle6o-jh2AiLQvKVz-74">
          <mxGeometry width="150" height="33" as="geometry" />
        </mxCell>
        <mxCell id="BVIDle6o-jh2AiLQvKVz-105" style="edgeStyle=orthogonalEdgeStyle;rounded=0;orthogonalLoop=1;jettySize=auto;html=1;entryX=0.5;entryY=0;entryDx=0;entryDy=0;fontSize=15;" edge="1" parent="1" source="BVIDle6o-jh2AiLQvKVz-76" target="BVIDle6o-jh2AiLQvKVz-99">
          <mxGeometry relative="1" as="geometry" />
        </mxCell>
        <mxCell id="BVIDle6o-jh2AiLQvKVz-76" value="&lt;span style=&quot;font-weight: 400 ; background-color: rgb(255 , 255 , 255)&quot;&gt;&lt;font style=&quot;font-size: 20px&quot;&gt;istore_1&lt;/font&gt;&lt;/span&gt;" style="swimlane;html=1;startSize=30;horizontal=1;containerType=tree;newEdgeStyle={&quot;edgeStyle&quot;:&quot;elbowEdgeStyle&quot;,&quot;startArrow&quot;:&quot;none&quot;,&quot;endArrow&quot;:&quot;none&quot;};fontSize=15;" vertex="1" parent="1">
          <mxGeometry x="-720" y="-840" width="330" height="230" as="geometry" />
        </mxCell>
        <mxCell id="BVIDle6o-jh2AiLQvKVz-77" value="a=3" style="rounded=0;whiteSpace=wrap;html=1;fontSize=20;" vertex="1" parent="BVIDle6o-jh2AiLQvKVz-76">
          <mxGeometry x="240" y="40" width="70" height="60" as="geometry" />
        </mxCell>
        <mxCell id="BVIDle6o-jh2AiLQvKVz-81" value="istore_1" style="edgeStyle=orthogonalEdgeStyle;rounded=0;orthogonalLoop=1;jettySize=auto;html=1;entryX=0.5;entryY=1;entryDx=0;entryDy=0;dashed=1;fontSize=15;" edge="1" parent="BVIDle6o-jh2AiLQvKVz-76" source="BVIDle6o-jh2AiLQvKVz-78" target="BVIDle6o-jh2AiLQvKVz-77">
          <mxGeometry relative="1" as="geometry" />
        </mxCell>
        <mxCell id="BVIDle6o-jh2AiLQvKVz-78" value="" style="rounded=0;whiteSpace=wrap;html=1;fontSize=20;" vertex="1" parent="BVIDle6o-jh2AiLQvKVz-76">
          <mxGeometry x="240" y="150" width="70" height="60" as="geometry" />
        </mxCell>
        <mxCell id="BVIDle6o-jh2AiLQvKVz-79" style="edgeStyle=orthogonalEdgeStyle;rounded=0;orthogonalLoop=1;jettySize=auto;html=1;entryX=0;entryY=0.5;entryDx=0;entryDy=0;fontSize=15;" edge="1" parent="1" source="BVIDle6o-jh2AiLQvKVz-68" target="BVIDle6o-jh2AiLQvKVz-77">
          <mxGeometry relative="1" as="geometry" />
        </mxCell>
        <mxCell id="BVIDle6o-jh2AiLQvKVz-80" style="edgeStyle=orthogonalEdgeStyle;rounded=0;orthogonalLoop=1;jettySize=auto;html=1;entryX=0;entryY=0.5;entryDx=0;entryDy=0;fontSize=15;" edge="1" parent="1" source="BVIDle6o-jh2AiLQvKVz-70" target="BVIDle6o-jh2AiLQvKVz-78">
          <mxGeometry relative="1" as="geometry" />
        </mxCell>
        <mxCell id="BVIDle6o-jh2AiLQvKVz-89" value="add()" style="swimlane;html=1;startSize=20;horizontal=1;containerType=tree;newEdgeStyle={&quot;edgeStyle&quot;:&quot;elbowEdgeStyle&quot;,&quot;startArrow&quot;:&quot;none&quot;,&quot;endArrow&quot;:&quot;none&quot;};gradientColor=#ffffff;fontSize=20;" vertex="1" parent="1">
          <mxGeometry x="-690" y="-470" width="150" height="160" as="geometry" />
        </mxCell>
        <mxCell id="BVIDle6o-jh2AiLQvKVz-90" value="" style="shape=table;html=1;whiteSpace=wrap;startSize=0;container=1;collapsible=0;childLayout=tableLayout;gradientColor=#ffffff;fontSize=15;" vertex="1" parent="BVIDle6o-jh2AiLQvKVz-89">
          <mxGeometry y="20" width="150" height="140" as="geometry" />
        </mxCell>
        <mxCell id="BVIDle6o-jh2AiLQvKVz-91" value="" style="shape=partialRectangle;html=1;whiteSpace=wrap;collapsible=0;dropTarget=0;pointerEvents=0;fillColor=none;top=0;left=0;bottom=0;right=0;points=[[0,0.5],[1,0.5]];portConstraint=eastwest;" vertex="1" parent="BVIDle6o-jh2AiLQvKVz-90">
          <mxGeometry width="150" height="35" as="geometry" />
        </mxCell>
        <mxCell id="BVIDle6o-jh2AiLQvKVz-92" value="局部变量表" style="shape=partialRectangle;html=1;whiteSpace=wrap;connectable=0;fillColor=none;top=0;left=0;bottom=0;right=0;overflow=hidden;fontSize=20;" vertex="1" parent="BVIDle6o-jh2AiLQvKVz-91">
          <mxGeometry width="150" height="35" as="geometry" />
        </mxCell>
        <mxCell id="BVIDle6o-jh2AiLQvKVz-93" value="" style="shape=partialRectangle;html=1;whiteSpace=wrap;collapsible=0;dropTarget=0;pointerEvents=0;fillColor=none;top=0;left=0;bottom=0;right=0;points=[[0,0.5],[1,0.5]];portConstraint=eastwest;" vertex="1" parent="BVIDle6o-jh2AiLQvKVz-90">
          <mxGeometry y="35" width="150" height="33" as="geometry" />
        </mxCell>
        <mxCell id="BVIDle6o-jh2AiLQvKVz-94" value="操作数栈" style="shape=partialRectangle;html=1;whiteSpace=wrap;connectable=0;fillColor=none;top=0;left=0;bottom=0;right=0;overflow=hidden;fontSize=20;" vertex="1" parent="BVIDle6o-jh2AiLQvKVz-93">
          <mxGeometry width="150" height="33" as="geometry" />
        </mxCell>
        <mxCell id="BVIDle6o-jh2AiLQvKVz-95" style="shape=partialRectangle;html=1;whiteSpace=wrap;collapsible=0;dropTarget=0;pointerEvents=0;fillColor=none;top=0;left=0;bottom=0;right=0;points=[[0,0.5],[1,0.5]];portConstraint=eastwest;" vertex="1" parent="BVIDle6o-jh2AiLQvKVz-90">
          <mxGeometry y="68" width="150" height="39" as="geometry" />
        </mxCell>
        <mxCell id="BVIDle6o-jh2AiLQvKVz-96" value="&lt;font style=&quot;font-size: 20px&quot;&gt;动态连接&lt;/font&gt;" style="shape=partialRectangle;html=1;whiteSpace=wrap;connectable=0;fillColor=none;top=0;left=0;bottom=0;right=0;overflow=hidden;" vertex="1" parent="BVIDle6o-jh2AiLQvKVz-95">
          <mxGeometry width="150" height="39" as="geometry" />
        </mxCell>
        <mxCell id="BVIDle6o-jh2AiLQvKVz-97" style="shape=partialRectangle;html=1;whiteSpace=wrap;collapsible=0;dropTarget=0;pointerEvents=0;fillColor=none;top=0;left=0;bottom=0;right=0;points=[[0,0.5],[1,0.5]];portConstraint=eastwest;" vertex="1" parent="BVIDle6o-jh2AiLQvKVz-90">
          <mxGeometry y="107" width="150" height="33" as="geometry" />
        </mxCell>
        <mxCell id="BVIDle6o-jh2AiLQvKVz-98" value="方法返回地址" style="shape=partialRectangle;html=1;whiteSpace=wrap;connectable=0;fillColor=none;top=0;left=0;bottom=0;right=0;overflow=hidden;fontSize=20;" vertex="1" parent="BVIDle6o-jh2AiLQvKVz-97">
          <mxGeometry width="150" height="33" as="geometry" />
        </mxCell>
        <mxCell id="BVIDle6o-jh2AiLQvKVz-127" style="edgeStyle=orthogonalEdgeStyle;rounded=0;orthogonalLoop=1;jettySize=auto;html=1;entryX=0.5;entryY=0;entryDx=0;entryDy=0;fontSize=15;" edge="1" parent="1" source="BVIDle6o-jh2AiLQvKVz-99" target="BVIDle6o-jh2AiLQvKVz-122">
          <mxGeometry relative="1" as="geometry" />
        </mxCell>
        <mxCell id="BVIDle6o-jh2AiLQvKVz-99" value="&lt;span style=&quot;font-size: 20px ; font-weight: 400 ; background-color: rgb(255 , 255 , 255)&quot;&gt;bipush&lt;/span&gt;" style="swimlane;html=1;startSize=30;horizontal=1;containerType=tree;newEdgeStyle={&quot;edgeStyle&quot;:&quot;elbowEdgeStyle&quot;,&quot;startArrow&quot;:&quot;none&quot;,&quot;endArrow&quot;:&quot;none&quot;};fontSize=15;" vertex="1" parent="1">
          <mxGeometry x="-720" y="-520" width="330" height="230" as="geometry" />
        </mxCell>
        <mxCell id="BVIDle6o-jh2AiLQvKVz-100" value="a=3" style="rounded=0;whiteSpace=wrap;html=1;fontSize=20;" vertex="1" parent="BVIDle6o-jh2AiLQvKVz-99">
          <mxGeometry x="240" y="40" width="70" height="60" as="geometry" />
        </mxCell>
        <mxCell id="BVIDle6o-jh2AiLQvKVz-102" value="10" style="rounded=0;whiteSpace=wrap;html=1;fontSize=20;" vertex="1" parent="BVIDle6o-jh2AiLQvKVz-99">
          <mxGeometry x="240" y="150" width="70" height="60" as="geometry" />
        </mxCell>
        <mxCell id="BVIDle6o-jh2AiLQvKVz-103" style="edgeStyle=orthogonalEdgeStyle;rounded=0;orthogonalLoop=1;jettySize=auto;html=1;entryX=0;entryY=0.5;entryDx=0;entryDy=0;fontSize=15;" edge="1" parent="1" source="BVIDle6o-jh2AiLQvKVz-91" target="BVIDle6o-jh2AiLQvKVz-100">
          <mxGeometry relative="1" as="geometry" />
        </mxCell>
        <mxCell id="BVIDle6o-jh2AiLQvKVz-104" style="edgeStyle=orthogonalEdgeStyle;rounded=0;orthogonalLoop=1;jettySize=auto;html=1;entryX=0;entryY=0.5;entryDx=0;entryDy=0;fontSize=15;" edge="1" parent="1" source="BVIDle6o-jh2AiLQvKVz-93" target="BVIDle6o-jh2AiLQvKVz-102">
          <mxGeometry relative="1" as="geometry" />
        </mxCell>
        <mxCell id="BVIDle6o-jh2AiLQvKVz-112" value="add()" style="swimlane;html=1;startSize=20;horizontal=1;containerType=tree;newEdgeStyle={&quot;edgeStyle&quot;:&quot;elbowEdgeStyle&quot;,&quot;startArrow&quot;:&quot;none&quot;,&quot;endArrow&quot;:&quot;none&quot;};gradientColor=#ffffff;fontSize=20;" vertex="1" parent="1">
          <mxGeometry x="-690" y="-150" width="150" height="160" as="geometry" />
        </mxCell>
        <mxCell id="BVIDle6o-jh2AiLQvKVz-113" value="" style="shape=table;html=1;whiteSpace=wrap;startSize=0;container=1;collapsible=0;childLayout=tableLayout;gradientColor=#ffffff;fontSize=15;" vertex="1" parent="BVIDle6o-jh2AiLQvKVz-112">
          <mxGeometry y="20" width="150" height="140" as="geometry" />
        </mxCell>
        <mxCell id="BVIDle6o-jh2AiLQvKVz-114" value="" style="shape=partialRectangle;html=1;whiteSpace=wrap;collapsible=0;dropTarget=0;pointerEvents=0;fillColor=none;top=0;left=0;bottom=0;right=0;points=[[0,0.5],[1,0.5]];portConstraint=eastwest;" vertex="1" parent="BVIDle6o-jh2AiLQvKVz-113">
          <mxGeometry width="150" height="35" as="geometry" />
        </mxCell>
        <mxCell id="BVIDle6o-jh2AiLQvKVz-115" value="局部变量表" style="shape=partialRectangle;html=1;whiteSpace=wrap;connectable=0;fillColor=none;top=0;left=0;bottom=0;right=0;overflow=hidden;fontSize=20;" vertex="1" parent="BVIDle6o-jh2AiLQvKVz-114">
          <mxGeometry width="150" height="35" as="geometry" />
        </mxCell>
        <mxCell id="BVIDle6o-jh2AiLQvKVz-116" value="" style="shape=partialRectangle;html=1;whiteSpace=wrap;collapsible=0;dropTarget=0;pointerEvents=0;fillColor=none;top=0;left=0;bottom=0;right=0;points=[[0,0.5],[1,0.5]];portConstraint=eastwest;" vertex="1" parent="BVIDle6o-jh2AiLQvKVz-113">
          <mxGeometry y="35" width="150" height="33" as="geometry" />
        </mxCell>
        <mxCell id="BVIDle6o-jh2AiLQvKVz-117" value="操作数栈" style="shape=partialRectangle;html=1;whiteSpace=wrap;connectable=0;fillColor=none;top=0;left=0;bottom=0;right=0;overflow=hidden;fontSize=20;" vertex="1" parent="BVIDle6o-jh2AiLQvKVz-116">
          <mxGeometry width="150" height="33" as="geometry" />
        </mxCell>
        <mxCell id="BVIDle6o-jh2AiLQvKVz-118" style="shape=partialRectangle;html=1;whiteSpace=wrap;collapsible=0;dropTarget=0;pointerEvents=0;fillColor=none;top=0;left=0;bottom=0;right=0;points=[[0,0.5],[1,0.5]];portConstraint=eastwest;" vertex="1" parent="BVIDle6o-jh2AiLQvKVz-113">
          <mxGeometry y="68" width="150" height="39" as="geometry" />
        </mxCell>
        <mxCell id="BVIDle6o-jh2AiLQvKVz-119" value="&lt;font style=&quot;font-size: 20px&quot;&gt;动态连接&lt;/font&gt;" style="shape=partialRectangle;html=1;whiteSpace=wrap;connectable=0;fillColor=none;top=0;left=0;bottom=0;right=0;overflow=hidden;" vertex="1" parent="BVIDle6o-jh2AiLQvKVz-118">
          <mxGeometry width="150" height="39" as="geometry" />
        </mxCell>
        <mxCell id="BVIDle6o-jh2AiLQvKVz-120" style="shape=partialRectangle;html=1;whiteSpace=wrap;collapsible=0;dropTarget=0;pointerEvents=0;fillColor=none;top=0;left=0;bottom=0;right=0;points=[[0,0.5],[1,0.5]];portConstraint=eastwest;" vertex="1" parent="BVIDle6o-jh2AiLQvKVz-113">
          <mxGeometry y="107" width="150" height="33" as="geometry" />
        </mxCell>
        <mxCell id="BVIDle6o-jh2AiLQvKVz-121" value="方法返回地址" style="shape=partialRectangle;html=1;whiteSpace=wrap;connectable=0;fillColor=none;top=0;left=0;bottom=0;right=0;overflow=hidden;fontSize=20;" vertex="1" parent="BVIDle6o-jh2AiLQvKVz-120">
          <mxGeometry width="150" height="33" as="geometry" />
        </mxCell>
        <mxCell id="BVIDle6o-jh2AiLQvKVz-150" style="edgeStyle=orthogonalEdgeStyle;rounded=0;orthogonalLoop=1;jettySize=auto;html=1;fontSize=15;" edge="1" parent="1" source="BVIDle6o-jh2AiLQvKVz-122" target="BVIDle6o-jh2AiLQvKVz-144">
          <mxGeometry relative="1" as="geometry" />
        </mxCell>
        <mxCell id="BVIDle6o-jh2AiLQvKVz-122" value="&lt;span style=&quot;font-size: 20px ; font-weight: 400 ; background-color: rgb(255 , 255 , 255)&quot;&gt;istore_2&lt;/span&gt;" style="swimlane;html=1;startSize=30;horizontal=1;containerType=tree;newEdgeStyle={&quot;edgeStyle&quot;:&quot;elbowEdgeStyle&quot;,&quot;startArrow&quot;:&quot;none&quot;,&quot;endArrow&quot;:&quot;none&quot;};fontSize=15;" vertex="1" parent="1">
          <mxGeometry x="-720" y="-200" width="330" height="230" as="geometry" />
        </mxCell>
        <mxCell id="BVIDle6o-jh2AiLQvKVz-123" value="a=3&lt;br&gt;b=10" style="rounded=0;whiteSpace=wrap;html=1;fontSize=20;" vertex="1" parent="BVIDle6o-jh2AiLQvKVz-122">
          <mxGeometry x="240" y="40" width="70" height="60" as="geometry" />
        </mxCell>
        <mxCell id="BVIDle6o-jh2AiLQvKVz-124" value="" style="rounded=0;whiteSpace=wrap;html=1;fontSize=20;" vertex="1" parent="BVIDle6o-jh2AiLQvKVz-122">
          <mxGeometry x="240" y="150" width="70" height="60" as="geometry" />
        </mxCell>
        <mxCell id="BVIDle6o-jh2AiLQvKVz-128" value="istore_2" style="edgeStyle=orthogonalEdgeStyle;rounded=0;orthogonalLoop=1;jettySize=auto;html=1;fontSize=15;entryX=0.5;entryY=1;entryDx=0;entryDy=0;dashed=1;" edge="1" parent="BVIDle6o-jh2AiLQvKVz-122" source="BVIDle6o-jh2AiLQvKVz-124" target="BVIDle6o-jh2AiLQvKVz-123">
          <mxGeometry relative="1" as="geometry">
            <mxPoint x="275" y="110" as="targetPoint" />
          </mxGeometry>
        </mxCell>
        <mxCell id="BVIDle6o-jh2AiLQvKVz-125" style="edgeStyle=orthogonalEdgeStyle;rounded=0;orthogonalLoop=1;jettySize=auto;html=1;entryX=0;entryY=0.5;entryDx=0;entryDy=0;fontSize=15;" edge="1" parent="1" source="BVIDle6o-jh2AiLQvKVz-114" target="BVIDle6o-jh2AiLQvKVz-123">
          <mxGeometry relative="1" as="geometry" />
        </mxCell>
        <mxCell id="BVIDle6o-jh2AiLQvKVz-126" style="edgeStyle=orthogonalEdgeStyle;rounded=0;orthogonalLoop=1;jettySize=auto;html=1;entryX=0;entryY=0.5;entryDx=0;entryDy=0;fontSize=15;" edge="1" parent="1" source="BVIDle6o-jh2AiLQvKVz-116" target="BVIDle6o-jh2AiLQvKVz-124">
          <mxGeometry relative="1" as="geometry" />
        </mxCell>
        <mxCell id="BVIDle6o-jh2AiLQvKVz-134" value="add()" style="swimlane;html=1;startSize=20;horizontal=1;containerType=tree;newEdgeStyle={&quot;edgeStyle&quot;:&quot;elbowEdgeStyle&quot;,&quot;startArrow&quot;:&quot;none&quot;,&quot;endArrow&quot;:&quot;none&quot;};gradientColor=#ffffff;fontSize=20;" vertex="1" parent="1">
          <mxGeometry x="-690" y="170" width="150" height="160" as="geometry" />
        </mxCell>
        <mxCell id="BVIDle6o-jh2AiLQvKVz-135" value="" style="shape=table;html=1;whiteSpace=wrap;startSize=0;container=1;collapsible=0;childLayout=tableLayout;gradientColor=#ffffff;fontSize=15;" vertex="1" parent="BVIDle6o-jh2AiLQvKVz-134">
          <mxGeometry y="20" width="150" height="140" as="geometry" />
        </mxCell>
        <mxCell id="BVIDle6o-jh2AiLQvKVz-136" value="" style="shape=partialRectangle;html=1;whiteSpace=wrap;collapsible=0;dropTarget=0;pointerEvents=0;fillColor=none;top=0;left=0;bottom=0;right=0;points=[[0,0.5],[1,0.5]];portConstraint=eastwest;" vertex="1" parent="BVIDle6o-jh2AiLQvKVz-135">
          <mxGeometry width="150" height="35" as="geometry" />
        </mxCell>
        <mxCell id="BVIDle6o-jh2AiLQvKVz-137" value="局部变量表" style="shape=partialRectangle;html=1;whiteSpace=wrap;connectable=0;fillColor=none;top=0;left=0;bottom=0;right=0;overflow=hidden;fontSize=20;" vertex="1" parent="BVIDle6o-jh2AiLQvKVz-136">
          <mxGeometry width="150" height="35" as="geometry" />
        </mxCell>
        <mxCell id="BVIDle6o-jh2AiLQvKVz-138" value="" style="shape=partialRectangle;html=1;whiteSpace=wrap;collapsible=0;dropTarget=0;pointerEvents=0;fillColor=none;top=0;left=0;bottom=0;right=0;points=[[0,0.5],[1,0.5]];portConstraint=eastwest;" vertex="1" parent="BVIDle6o-jh2AiLQvKVz-135">
          <mxGeometry y="35" width="150" height="33" as="geometry" />
        </mxCell>
        <mxCell id="BVIDle6o-jh2AiLQvKVz-139" value="操作数栈" style="shape=partialRectangle;html=1;whiteSpace=wrap;connectable=0;fillColor=none;top=0;left=0;bottom=0;right=0;overflow=hidden;fontSize=20;" vertex="1" parent="BVIDle6o-jh2AiLQvKVz-138">
          <mxGeometry width="150" height="33" as="geometry" />
        </mxCell>
        <mxCell id="BVIDle6o-jh2AiLQvKVz-140" style="shape=partialRectangle;html=1;whiteSpace=wrap;collapsible=0;dropTarget=0;pointerEvents=0;fillColor=none;top=0;left=0;bottom=0;right=0;points=[[0,0.5],[1,0.5]];portConstraint=eastwest;" vertex="1" parent="BVIDle6o-jh2AiLQvKVz-135">
          <mxGeometry y="68" width="150" height="39" as="geometry" />
        </mxCell>
        <mxCell id="BVIDle6o-jh2AiLQvKVz-141" value="&lt;font style=&quot;font-size: 20px&quot;&gt;动态连接&lt;/font&gt;" style="shape=partialRectangle;html=1;whiteSpace=wrap;connectable=0;fillColor=none;top=0;left=0;bottom=0;right=0;overflow=hidden;" vertex="1" parent="BVIDle6o-jh2AiLQvKVz-140">
          <mxGeometry width="150" height="39" as="geometry" />
        </mxCell>
        <mxCell id="BVIDle6o-jh2AiLQvKVz-142" style="shape=partialRectangle;html=1;whiteSpace=wrap;collapsible=0;dropTarget=0;pointerEvents=0;fillColor=none;top=0;left=0;bottom=0;right=0;points=[[0,0.5],[1,0.5]];portConstraint=eastwest;" vertex="1" parent="BVIDle6o-jh2AiLQvKVz-135">
          <mxGeometry y="107" width="150" height="33" as="geometry" />
        </mxCell>
        <mxCell id="BVIDle6o-jh2AiLQvKVz-143" value="方法返回地址" style="shape=partialRectangle;html=1;whiteSpace=wrap;connectable=0;fillColor=none;top=0;left=0;bottom=0;right=0;overflow=hidden;fontSize=20;" vertex="1" parent="BVIDle6o-jh2AiLQvKVz-142">
          <mxGeometry width="150" height="33" as="geometry" />
        </mxCell>
        <mxCell id="BVIDle6o-jh2AiLQvKVz-172" style="edgeStyle=orthogonalEdgeStyle;rounded=0;orthogonalLoop=1;jettySize=auto;html=1;entryX=0.5;entryY=0;entryDx=0;entryDy=0;fontSize=15;" edge="1" parent="1" source="BVIDle6o-jh2AiLQvKVz-144" target="BVIDle6o-jh2AiLQvKVz-166">
          <mxGeometry relative="1" as="geometry" />
        </mxCell>
        <mxCell id="BVIDle6o-jh2AiLQvKVz-144" value="&lt;span style=&quot;font-size: 20px ; font-weight: 400 ; background-color: rgb(255 , 255 , 255)&quot;&gt;iload_1&lt;/span&gt;" style="swimlane;html=1;startSize=30;horizontal=1;containerType=tree;newEdgeStyle={&quot;edgeStyle&quot;:&quot;elbowEdgeStyle&quot;,&quot;startArrow&quot;:&quot;none&quot;,&quot;endArrow&quot;:&quot;none&quot;};fontSize=15;" vertex="1" parent="1">
          <mxGeometry x="-720" y="120" width="330" height="230" as="geometry" />
        </mxCell>
        <mxCell id="BVIDle6o-jh2AiLQvKVz-151" value="iload_1" style="edgeStyle=orthogonalEdgeStyle;rounded=0;orthogonalLoop=1;jettySize=auto;html=1;entryX=0.5;entryY=0;entryDx=0;entryDy=0;dashed=1;fontSize=15;" edge="1" parent="BVIDle6o-jh2AiLQvKVz-144" source="BVIDle6o-jh2AiLQvKVz-145" target="BVIDle6o-jh2AiLQvKVz-146">
          <mxGeometry relative="1" as="geometry" />
        </mxCell>
        <mxCell id="BVIDle6o-jh2AiLQvKVz-145" value="a=3&lt;br&gt;b=10" style="rounded=0;whiteSpace=wrap;html=1;fontSize=20;" vertex="1" parent="BVIDle6o-jh2AiLQvKVz-144">
          <mxGeometry x="240" y="40" width="70" height="60" as="geometry" />
        </mxCell>
        <mxCell id="BVIDle6o-jh2AiLQvKVz-146" value="3" style="rounded=0;whiteSpace=wrap;html=1;fontSize=20;" vertex="1" parent="BVIDle6o-jh2AiLQvKVz-144">
          <mxGeometry x="240" y="150" width="70" height="60" as="geometry" />
        </mxCell>
        <mxCell id="BVIDle6o-jh2AiLQvKVz-148" style="edgeStyle=orthogonalEdgeStyle;rounded=0;orthogonalLoop=1;jettySize=auto;html=1;entryX=0;entryY=0.5;entryDx=0;entryDy=0;fontSize=15;" edge="1" parent="1" source="BVIDle6o-jh2AiLQvKVz-136" target="BVIDle6o-jh2AiLQvKVz-145">
          <mxGeometry relative="1" as="geometry" />
        </mxCell>
        <mxCell id="BVIDle6o-jh2AiLQvKVz-149" style="edgeStyle=orthogonalEdgeStyle;rounded=0;orthogonalLoop=1;jettySize=auto;html=1;entryX=0;entryY=0.5;entryDx=0;entryDy=0;fontSize=15;" edge="1" parent="1" source="BVIDle6o-jh2AiLQvKVz-138" target="BVIDle6o-jh2AiLQvKVz-146">
          <mxGeometry relative="1" as="geometry" />
        </mxCell>
        <mxCell id="BVIDle6o-jh2AiLQvKVz-156" value="add()" style="swimlane;html=1;startSize=20;horizontal=1;containerType=tree;newEdgeStyle={&quot;edgeStyle&quot;:&quot;elbowEdgeStyle&quot;,&quot;startArrow&quot;:&quot;none&quot;,&quot;endArrow&quot;:&quot;none&quot;};gradientColor=#ffffff;fontSize=20;" vertex="1" parent="1">
          <mxGeometry x="-690" y="490" width="150" height="160" as="geometry" />
        </mxCell>
        <mxCell id="BVIDle6o-jh2AiLQvKVz-157" value="" style="shape=table;html=1;whiteSpace=wrap;startSize=0;container=1;collapsible=0;childLayout=tableLayout;gradientColor=#ffffff;fontSize=15;" vertex="1" parent="BVIDle6o-jh2AiLQvKVz-156">
          <mxGeometry y="20" width="150" height="140" as="geometry" />
        </mxCell>
        <mxCell id="BVIDle6o-jh2AiLQvKVz-158" value="" style="shape=partialRectangle;html=1;whiteSpace=wrap;collapsible=0;dropTarget=0;pointerEvents=0;fillColor=none;top=0;left=0;bottom=0;right=0;points=[[0,0.5],[1,0.5]];portConstraint=eastwest;" vertex="1" parent="BVIDle6o-jh2AiLQvKVz-157">
          <mxGeometry width="150" height="35" as="geometry" />
        </mxCell>
        <mxCell id="BVIDle6o-jh2AiLQvKVz-159" value="局部变量表" style="shape=partialRectangle;html=1;whiteSpace=wrap;connectable=0;fillColor=none;top=0;left=0;bottom=0;right=0;overflow=hidden;fontSize=20;" vertex="1" parent="BVIDle6o-jh2AiLQvKVz-158">
          <mxGeometry width="150" height="35" as="geometry" />
        </mxCell>
        <mxCell id="BVIDle6o-jh2AiLQvKVz-160" value="" style="shape=partialRectangle;html=1;whiteSpace=wrap;collapsible=0;dropTarget=0;pointerEvents=0;fillColor=none;top=0;left=0;bottom=0;right=0;points=[[0,0.5],[1,0.5]];portConstraint=eastwest;" vertex="1" parent="BVIDle6o-jh2AiLQvKVz-157">
          <mxGeometry y="35" width="150" height="33" as="geometry" />
        </mxCell>
        <mxCell id="BVIDle6o-jh2AiLQvKVz-161" value="操作数栈" style="shape=partialRectangle;html=1;whiteSpace=wrap;connectable=0;fillColor=none;top=0;left=0;bottom=0;right=0;overflow=hidden;fontSize=20;" vertex="1" parent="BVIDle6o-jh2AiLQvKVz-160">
          <mxGeometry width="150" height="33" as="geometry" />
        </mxCell>
        <mxCell id="BVIDle6o-jh2AiLQvKVz-162" style="shape=partialRectangle;html=1;whiteSpace=wrap;collapsible=0;dropTarget=0;pointerEvents=0;fillColor=none;top=0;left=0;bottom=0;right=0;points=[[0,0.5],[1,0.5]];portConstraint=eastwest;" vertex="1" parent="BVIDle6o-jh2AiLQvKVz-157">
          <mxGeometry y="68" width="150" height="39" as="geometry" />
        </mxCell>
        <mxCell id="BVIDle6o-jh2AiLQvKVz-163" value="&lt;font style=&quot;font-size: 20px&quot;&gt;动态连接&lt;/font&gt;" style="shape=partialRectangle;html=1;whiteSpace=wrap;connectable=0;fillColor=none;top=0;left=0;bottom=0;right=0;overflow=hidden;" vertex="1" parent="BVIDle6o-jh2AiLQvKVz-162">
          <mxGeometry width="150" height="39" as="geometry" />
        </mxCell>
        <mxCell id="BVIDle6o-jh2AiLQvKVz-164" style="shape=partialRectangle;html=1;whiteSpace=wrap;collapsible=0;dropTarget=0;pointerEvents=0;fillColor=none;top=0;left=0;bottom=0;right=0;points=[[0,0.5],[1,0.5]];portConstraint=eastwest;" vertex="1" parent="BVIDle6o-jh2AiLQvKVz-157">
          <mxGeometry y="107" width="150" height="33" as="geometry" />
        </mxCell>
        <mxCell id="BVIDle6o-jh2AiLQvKVz-165" value="方法返回地址" style="shape=partialRectangle;html=1;whiteSpace=wrap;connectable=0;fillColor=none;top=0;left=0;bottom=0;right=0;overflow=hidden;fontSize=20;" vertex="1" parent="BVIDle6o-jh2AiLQvKVz-164">
          <mxGeometry width="150" height="33" as="geometry" />
        </mxCell>
        <mxCell id="BVIDle6o-jh2AiLQvKVz-189" style="edgeStyle=orthogonalEdgeStyle;rounded=0;orthogonalLoop=1;jettySize=auto;html=1;entryX=0.5;entryY=0;entryDx=0;entryDy=0;fontSize=15;" edge="1" parent="1" source="BVIDle6o-jh2AiLQvKVz-166" target="BVIDle6o-jh2AiLQvKVz-183">
          <mxGeometry relative="1" as="geometry" />
        </mxCell>
        <mxCell id="BVIDle6o-jh2AiLQvKVz-166" value="&lt;span style=&quot;font-size: 20px ; font-weight: 400 ; background-color: rgb(255 , 255 , 255)&quot;&gt;iload_2&lt;/span&gt;" style="swimlane;html=1;startSize=30;horizontal=1;containerType=tree;newEdgeStyle={&quot;edgeStyle&quot;:&quot;elbowEdgeStyle&quot;,&quot;startArrow&quot;:&quot;none&quot;,&quot;endArrow&quot;:&quot;none&quot;};fontSize=15;" vertex="1" parent="1">
          <mxGeometry x="-720" y="440" width="330" height="230" as="geometry" />
        </mxCell>
        <mxCell id="BVIDle6o-jh2AiLQvKVz-167" value="iload_2" style="edgeStyle=orthogonalEdgeStyle;rounded=0;orthogonalLoop=1;jettySize=auto;html=1;entryX=0.5;entryY=0;entryDx=0;entryDy=0;dashed=1;fontSize=15;" edge="1" parent="BVIDle6o-jh2AiLQvKVz-166" source="BVIDle6o-jh2AiLQvKVz-168" target="BVIDle6o-jh2AiLQvKVz-169">
          <mxGeometry relative="1" as="geometry" />
        </mxCell>
        <mxCell id="BVIDle6o-jh2AiLQvKVz-168" value="a=3&lt;br&gt;b=10" style="rounded=0;whiteSpace=wrap;html=1;fontSize=20;" vertex="1" parent="BVIDle6o-jh2AiLQvKVz-166">
          <mxGeometry x="240" y="40" width="70" height="60" as="geometry" />
        </mxCell>
        <mxCell id="BVIDle6o-jh2AiLQvKVz-169" value="10&lt;br&gt;3" style="rounded=0;whiteSpace=wrap;html=1;fontSize=20;" vertex="1" parent="BVIDle6o-jh2AiLQvKVz-166">
          <mxGeometry x="240" y="150" width="70" height="60" as="geometry" />
        </mxCell>
        <mxCell id="BVIDle6o-jh2AiLQvKVz-170" style="edgeStyle=orthogonalEdgeStyle;rounded=0;orthogonalLoop=1;jettySize=auto;html=1;entryX=0;entryY=0.5;entryDx=0;entryDy=0;fontSize=15;" edge="1" parent="1" source="BVIDle6o-jh2AiLQvKVz-158" target="BVIDle6o-jh2AiLQvKVz-168">
          <mxGeometry relative="1" as="geometry" />
        </mxCell>
        <mxCell id="BVIDle6o-jh2AiLQvKVz-171" style="edgeStyle=orthogonalEdgeStyle;rounded=0;orthogonalLoop=1;jettySize=auto;html=1;entryX=0;entryY=0.5;entryDx=0;entryDy=0;fontSize=15;" edge="1" parent="1" source="BVIDle6o-jh2AiLQvKVz-160" target="BVIDle6o-jh2AiLQvKVz-169">
          <mxGeometry relative="1" as="geometry" />
        </mxCell>
        <mxCell id="BVIDle6o-jh2AiLQvKVz-173" value="add()" style="swimlane;html=1;startSize=20;horizontal=1;containerType=tree;newEdgeStyle={&quot;edgeStyle&quot;:&quot;elbowEdgeStyle&quot;,&quot;startArrow&quot;:&quot;none&quot;,&quot;endArrow&quot;:&quot;none&quot;};gradientColor=#ffffff;fontSize=20;" vertex="1" parent="1">
          <mxGeometry x="-690" y="810" width="150" height="160" as="geometry" />
        </mxCell>
        <mxCell id="BVIDle6o-jh2AiLQvKVz-174" value="" style="shape=table;html=1;whiteSpace=wrap;startSize=0;container=1;collapsible=0;childLayout=tableLayout;gradientColor=#ffffff;fontSize=15;" vertex="1" parent="BVIDle6o-jh2AiLQvKVz-173">
          <mxGeometry y="20" width="150" height="140" as="geometry" />
        </mxCell>
        <mxCell id="BVIDle6o-jh2AiLQvKVz-175" value="" style="shape=partialRectangle;html=1;whiteSpace=wrap;collapsible=0;dropTarget=0;pointerEvents=0;fillColor=none;top=0;left=0;bottom=0;right=0;points=[[0,0.5],[1,0.5]];portConstraint=eastwest;" vertex="1" parent="BVIDle6o-jh2AiLQvKVz-174">
          <mxGeometry width="150" height="35" as="geometry" />
        </mxCell>
        <mxCell id="BVIDle6o-jh2AiLQvKVz-176" value="局部变量表" style="shape=partialRectangle;html=1;whiteSpace=wrap;connectable=0;fillColor=none;top=0;left=0;bottom=0;right=0;overflow=hidden;fontSize=20;" vertex="1" parent="BVIDle6o-jh2AiLQvKVz-175">
          <mxGeometry width="150" height="35" as="geometry" />
        </mxCell>
        <mxCell id="BVIDle6o-jh2AiLQvKVz-177" value="" style="shape=partialRectangle;html=1;whiteSpace=wrap;collapsible=0;dropTarget=0;pointerEvents=0;fillColor=none;top=0;left=0;bottom=0;right=0;points=[[0,0.5],[1,0.5]];portConstraint=eastwest;" vertex="1" parent="BVIDle6o-jh2AiLQvKVz-174">
          <mxGeometry y="35" width="150" height="33" as="geometry" />
        </mxCell>
        <mxCell id="BVIDle6o-jh2AiLQvKVz-178" value="操作数栈" style="shape=partialRectangle;html=1;whiteSpace=wrap;connectable=0;fillColor=none;top=0;left=0;bottom=0;right=0;overflow=hidden;fontSize=20;" vertex="1" parent="BVIDle6o-jh2AiLQvKVz-177">
          <mxGeometry width="150" height="33" as="geometry" />
        </mxCell>
        <mxCell id="BVIDle6o-jh2AiLQvKVz-179" style="shape=partialRectangle;html=1;whiteSpace=wrap;collapsible=0;dropTarget=0;pointerEvents=0;fillColor=none;top=0;left=0;bottom=0;right=0;points=[[0,0.5],[1,0.5]];portConstraint=eastwest;" vertex="1" parent="BVIDle6o-jh2AiLQvKVz-174">
          <mxGeometry y="68" width="150" height="39" as="geometry" />
        </mxCell>
        <mxCell id="BVIDle6o-jh2AiLQvKVz-180" value="&lt;font style=&quot;font-size: 20px&quot;&gt;动态连接&lt;/font&gt;" style="shape=partialRectangle;html=1;whiteSpace=wrap;connectable=0;fillColor=none;top=0;left=0;bottom=0;right=0;overflow=hidden;" vertex="1" parent="BVIDle6o-jh2AiLQvKVz-179">
          <mxGeometry width="150" height="39" as="geometry" />
        </mxCell>
        <mxCell id="BVIDle6o-jh2AiLQvKVz-181" style="shape=partialRectangle;html=1;whiteSpace=wrap;collapsible=0;dropTarget=0;pointerEvents=0;fillColor=none;top=0;left=0;bottom=0;right=0;points=[[0,0.5],[1,0.5]];portConstraint=eastwest;" vertex="1" parent="BVIDle6o-jh2AiLQvKVz-174">
          <mxGeometry y="107" width="150" height="33" as="geometry" />
        </mxCell>
        <mxCell id="BVIDle6o-jh2AiLQvKVz-182" value="方法返回地址" style="shape=partialRectangle;html=1;whiteSpace=wrap;connectable=0;fillColor=none;top=0;left=0;bottom=0;right=0;overflow=hidden;fontSize=20;" vertex="1" parent="BVIDle6o-jh2AiLQvKVz-181">
          <mxGeometry width="150" height="33" as="geometry" />
        </mxCell>
        <mxCell id="BVIDle6o-jh2AiLQvKVz-207" style="edgeStyle=orthogonalEdgeStyle;rounded=0;orthogonalLoop=1;jettySize=auto;html=1;entryX=0.5;entryY=0;entryDx=0;entryDy=0;fontSize=15;" edge="1" parent="1" source="BVIDle6o-jh2AiLQvKVz-183" target="BVIDle6o-jh2AiLQvKVz-202">
          <mxGeometry relative="1" as="geometry" />
        </mxCell>
        <mxCell id="BVIDle6o-jh2AiLQvKVz-183" value="&lt;span style=&quot;font-size: 20px ; font-weight: 400 ; background-color: rgb(255 , 255 , 255)&quot;&gt;iadd&lt;/span&gt;" style="swimlane;html=1;startSize=30;horizontal=1;containerType=tree;newEdgeStyle={&quot;edgeStyle&quot;:&quot;elbowEdgeStyle&quot;,&quot;startArrow&quot;:&quot;none&quot;,&quot;endArrow&quot;:&quot;none&quot;};fontSize=15;" vertex="1" parent="1">
          <mxGeometry x="-720" y="760" width="330" height="230" as="geometry" />
        </mxCell>
        <mxCell id="BVIDle6o-jh2AiLQvKVz-185" value="a=3&lt;br&gt;b=10" style="rounded=0;whiteSpace=wrap;html=1;fontSize=20;" vertex="1" parent="BVIDle6o-jh2AiLQvKVz-183">
          <mxGeometry x="240" y="40" width="70" height="60" as="geometry" />
        </mxCell>
        <mxCell id="BVIDle6o-jh2AiLQvKVz-186" value="13" style="rounded=0;whiteSpace=wrap;html=1;fontSize=20;" vertex="1" parent="BVIDle6o-jh2AiLQvKVz-183">
          <mxGeometry x="240" y="150" width="70" height="60" as="geometry" />
        </mxCell>
        <mxCell id="BVIDle6o-jh2AiLQvKVz-187" style="edgeStyle=orthogonalEdgeStyle;rounded=0;orthogonalLoop=1;jettySize=auto;html=1;entryX=0;entryY=0.5;entryDx=0;entryDy=0;fontSize=15;" edge="1" parent="1" source="BVIDle6o-jh2AiLQvKVz-175" target="BVIDle6o-jh2AiLQvKVz-185">
          <mxGeometry relative="1" as="geometry" />
        </mxCell>
        <mxCell id="BVIDle6o-jh2AiLQvKVz-188" style="edgeStyle=orthogonalEdgeStyle;rounded=0;orthogonalLoop=1;jettySize=auto;html=1;entryX=0;entryY=0.5;entryDx=0;entryDy=0;fontSize=15;" edge="1" parent="1" source="BVIDle6o-jh2AiLQvKVz-177" target="BVIDle6o-jh2AiLQvKVz-186">
          <mxGeometry relative="1" as="geometry" />
        </mxCell>
        <mxCell id="BVIDle6o-jh2AiLQvKVz-192" value="add()" style="swimlane;html=1;startSize=20;horizontal=1;containerType=tree;newEdgeStyle={&quot;edgeStyle&quot;:&quot;elbowEdgeStyle&quot;,&quot;startArrow&quot;:&quot;none&quot;,&quot;endArrow&quot;:&quot;none&quot;};gradientColor=#ffffff;fontSize=20;" vertex="1" parent="1">
          <mxGeometry x="-690" y="1130" width="150" height="160" as="geometry" />
        </mxCell>
        <mxCell id="BVIDle6o-jh2AiLQvKVz-193" value="" style="shape=table;html=1;whiteSpace=wrap;startSize=0;container=1;collapsible=0;childLayout=tableLayout;gradientColor=#ffffff;fontSize=15;" vertex="1" parent="BVIDle6o-jh2AiLQvKVz-192">
          <mxGeometry y="20" width="150" height="140" as="geometry" />
        </mxCell>
        <mxCell id="BVIDle6o-jh2AiLQvKVz-194" value="" style="shape=partialRectangle;html=1;whiteSpace=wrap;collapsible=0;dropTarget=0;pointerEvents=0;fillColor=none;top=0;left=0;bottom=0;right=0;points=[[0,0.5],[1,0.5]];portConstraint=eastwest;" vertex="1" parent="BVIDle6o-jh2AiLQvKVz-193">
          <mxGeometry width="150" height="35" as="geometry" />
        </mxCell>
        <mxCell id="BVIDle6o-jh2AiLQvKVz-195" value="局部变量表" style="shape=partialRectangle;html=1;whiteSpace=wrap;connectable=0;fillColor=none;top=0;left=0;bottom=0;right=0;overflow=hidden;fontSize=20;" vertex="1" parent="BVIDle6o-jh2AiLQvKVz-194">
          <mxGeometry width="150" height="35" as="geometry" />
        </mxCell>
        <mxCell id="BVIDle6o-jh2AiLQvKVz-196" value="" style="shape=partialRectangle;html=1;whiteSpace=wrap;collapsible=0;dropTarget=0;pointerEvents=0;fillColor=none;top=0;left=0;bottom=0;right=0;points=[[0,0.5],[1,0.5]];portConstraint=eastwest;" vertex="1" parent="BVIDle6o-jh2AiLQvKVz-193">
          <mxGeometry y="35" width="150" height="33" as="geometry" />
        </mxCell>
        <mxCell id="BVIDle6o-jh2AiLQvKVz-197" value="操作数栈" style="shape=partialRectangle;html=1;whiteSpace=wrap;connectable=0;fillColor=none;top=0;left=0;bottom=0;right=0;overflow=hidden;fontSize=20;" vertex="1" parent="BVIDle6o-jh2AiLQvKVz-196">
          <mxGeometry width="150" height="33" as="geometry" />
        </mxCell>
        <mxCell id="BVIDle6o-jh2AiLQvKVz-198" style="shape=partialRectangle;html=1;whiteSpace=wrap;collapsible=0;dropTarget=0;pointerEvents=0;fillColor=none;top=0;left=0;bottom=0;right=0;points=[[0,0.5],[1,0.5]];portConstraint=eastwest;" vertex="1" parent="BVIDle6o-jh2AiLQvKVz-193">
          <mxGeometry y="68" width="150" height="39" as="geometry" />
        </mxCell>
        <mxCell id="BVIDle6o-jh2AiLQvKVz-199" value="&lt;font style=&quot;font-size: 20px&quot;&gt;动态连接&lt;/font&gt;" style="shape=partialRectangle;html=1;whiteSpace=wrap;connectable=0;fillColor=none;top=0;left=0;bottom=0;right=0;overflow=hidden;" vertex="1" parent="BVIDle6o-jh2AiLQvKVz-198">
          <mxGeometry width="150" height="39" as="geometry" />
        </mxCell>
        <mxCell id="BVIDle6o-jh2AiLQvKVz-200" style="shape=partialRectangle;html=1;whiteSpace=wrap;collapsible=0;dropTarget=0;pointerEvents=0;fillColor=none;top=0;left=0;bottom=0;right=0;points=[[0,0.5],[1,0.5]];portConstraint=eastwest;" vertex="1" parent="BVIDle6o-jh2AiLQvKVz-193">
          <mxGeometry y="107" width="150" height="33" as="geometry" />
        </mxCell>
        <mxCell id="BVIDle6o-jh2AiLQvKVz-201" value="方法返回地址" style="shape=partialRectangle;html=1;whiteSpace=wrap;connectable=0;fillColor=none;top=0;left=0;bottom=0;right=0;overflow=hidden;fontSize=20;" vertex="1" parent="BVIDle6o-jh2AiLQvKVz-200">
          <mxGeometry width="150" height="33" as="geometry" />
        </mxCell>
        <mxCell id="BVIDle6o-jh2AiLQvKVz-241" style="edgeStyle=orthogonalEdgeStyle;rounded=0;orthogonalLoop=1;jettySize=auto;html=1;entryX=0.5;entryY=0;entryDx=0;entryDy=0;fontSize=15;" edge="1" parent="1" source="BVIDle6o-jh2AiLQvKVz-202" target="BVIDle6o-jh2AiLQvKVz-235">
          <mxGeometry relative="1" as="geometry" />
        </mxCell>
        <mxCell id="BVIDle6o-jh2AiLQvKVz-202" value="&lt;span style=&quot;font-size: 20px ; font-weight: 400 ; background-color: rgb(255 , 255 , 255)&quot;&gt;istore_3&lt;/span&gt;" style="swimlane;html=1;startSize=30;horizontal=1;containerType=tree;newEdgeStyle={&quot;edgeStyle&quot;:&quot;elbowEdgeStyle&quot;,&quot;startArrow&quot;:&quot;none&quot;,&quot;endArrow&quot;:&quot;none&quot;};fontSize=15;" vertex="1" parent="1">
          <mxGeometry x="-720" y="1080" width="330" height="230" as="geometry" />
        </mxCell>
        <mxCell id="BVIDle6o-jh2AiLQvKVz-203" value="a=3&lt;br&gt;b=10&lt;br&gt;c=13" style="rounded=0;whiteSpace=wrap;html=1;fontSize=20;" vertex="1" parent="BVIDle6o-jh2AiLQvKVz-202">
          <mxGeometry x="240" y="40" width="70" height="70" as="geometry" />
        </mxCell>
        <mxCell id="BVIDle6o-jh2AiLQvKVz-208" value="istore_3" style="edgeStyle=orthogonalEdgeStyle;rounded=0;orthogonalLoop=1;jettySize=auto;html=1;entryX=0.5;entryY=1;entryDx=0;entryDy=0;fontSize=15;dashed=1;" edge="1" parent="BVIDle6o-jh2AiLQvKVz-202" source="BVIDle6o-jh2AiLQvKVz-204" target="BVIDle6o-jh2AiLQvKVz-203">
          <mxGeometry relative="1" as="geometry" />
        </mxCell>
        <mxCell id="BVIDle6o-jh2AiLQvKVz-204" value="" style="rounded=0;whiteSpace=wrap;html=1;fontSize=20;" vertex="1" parent="BVIDle6o-jh2AiLQvKVz-202">
          <mxGeometry x="240" y="150" width="70" height="60" as="geometry" />
        </mxCell>
        <mxCell id="BVIDle6o-jh2AiLQvKVz-205" style="edgeStyle=orthogonalEdgeStyle;rounded=0;orthogonalLoop=1;jettySize=auto;html=1;entryX=0;entryY=0.5;entryDx=0;entryDy=0;fontSize=15;" edge="1" parent="1" source="BVIDle6o-jh2AiLQvKVz-194" target="BVIDle6o-jh2AiLQvKVz-203">
          <mxGeometry relative="1" as="geometry" />
        </mxCell>
        <mxCell id="BVIDle6o-jh2AiLQvKVz-206" style="edgeStyle=orthogonalEdgeStyle;rounded=0;orthogonalLoop=1;jettySize=auto;html=1;entryX=0;entryY=0.5;entryDx=0;entryDy=0;fontSize=15;" edge="1" parent="1" source="BVIDle6o-jh2AiLQvKVz-196" target="BVIDle6o-jh2AiLQvKVz-204">
          <mxGeometry relative="1" as="geometry" />
        </mxCell>
        <mxCell id="BVIDle6o-jh2AiLQvKVz-225" value="add()" style="swimlane;html=1;startSize=20;horizontal=1;containerType=tree;newEdgeStyle={&quot;edgeStyle&quot;:&quot;elbowEdgeStyle&quot;,&quot;startArrow&quot;:&quot;none&quot;,&quot;endArrow&quot;:&quot;none&quot;};gradientColor=#ffffff;fontSize=20;" vertex="1" parent="1">
          <mxGeometry x="-690" y="1450" width="150" height="160" as="geometry" />
        </mxCell>
        <mxCell id="BVIDle6o-jh2AiLQvKVz-226" value="" style="shape=table;html=1;whiteSpace=wrap;startSize=0;container=1;collapsible=0;childLayout=tableLayout;gradientColor=#ffffff;fontSize=15;" vertex="1" parent="BVIDle6o-jh2AiLQvKVz-225">
          <mxGeometry y="20" width="150" height="140" as="geometry" />
        </mxCell>
        <mxCell id="BVIDle6o-jh2AiLQvKVz-227" value="" style="shape=partialRectangle;html=1;whiteSpace=wrap;collapsible=0;dropTarget=0;pointerEvents=0;fillColor=none;top=0;left=0;bottom=0;right=0;points=[[0,0.5],[1,0.5]];portConstraint=eastwest;" vertex="1" parent="BVIDle6o-jh2AiLQvKVz-226">
          <mxGeometry width="150" height="35" as="geometry" />
        </mxCell>
        <mxCell id="BVIDle6o-jh2AiLQvKVz-228" value="局部变量表" style="shape=partialRectangle;html=1;whiteSpace=wrap;connectable=0;fillColor=none;top=0;left=0;bottom=0;right=0;overflow=hidden;fontSize=20;" vertex="1" parent="BVIDle6o-jh2AiLQvKVz-227">
          <mxGeometry width="150" height="35" as="geometry" />
        </mxCell>
        <mxCell id="BVIDle6o-jh2AiLQvKVz-229" value="" style="shape=partialRectangle;html=1;whiteSpace=wrap;collapsible=0;dropTarget=0;pointerEvents=0;fillColor=none;top=0;left=0;bottom=0;right=0;points=[[0,0.5],[1,0.5]];portConstraint=eastwest;" vertex="1" parent="BVIDle6o-jh2AiLQvKVz-226">
          <mxGeometry y="35" width="150" height="33" as="geometry" />
        </mxCell>
        <mxCell id="BVIDle6o-jh2AiLQvKVz-230" value="操作数栈" style="shape=partialRectangle;html=1;whiteSpace=wrap;connectable=0;fillColor=none;top=0;left=0;bottom=0;right=0;overflow=hidden;fontSize=20;" vertex="1" parent="BVIDle6o-jh2AiLQvKVz-229">
          <mxGeometry width="150" height="33" as="geometry" />
        </mxCell>
        <mxCell id="BVIDle6o-jh2AiLQvKVz-231" style="shape=partialRectangle;html=1;whiteSpace=wrap;collapsible=0;dropTarget=0;pointerEvents=0;fillColor=none;top=0;left=0;bottom=0;right=0;points=[[0,0.5],[1,0.5]];portConstraint=eastwest;" vertex="1" parent="BVIDle6o-jh2AiLQvKVz-226">
          <mxGeometry y="68" width="150" height="39" as="geometry" />
        </mxCell>
        <mxCell id="BVIDle6o-jh2AiLQvKVz-232" value="&lt;font style=&quot;font-size: 20px&quot;&gt;动态连接&lt;/font&gt;" style="shape=partialRectangle;html=1;whiteSpace=wrap;connectable=0;fillColor=none;top=0;left=0;bottom=0;right=0;overflow=hidden;" vertex="1" parent="BVIDle6o-jh2AiLQvKVz-231">
          <mxGeometry width="150" height="39" as="geometry" />
        </mxCell>
        <mxCell id="BVIDle6o-jh2AiLQvKVz-233" style="shape=partialRectangle;html=1;whiteSpace=wrap;collapsible=0;dropTarget=0;pointerEvents=0;fillColor=none;top=0;left=0;bottom=0;right=0;points=[[0,0.5],[1,0.5]];portConstraint=eastwest;" vertex="1" parent="BVIDle6o-jh2AiLQvKVz-226">
          <mxGeometry y="107" width="150" height="33" as="geometry" />
        </mxCell>
        <mxCell id="BVIDle6o-jh2AiLQvKVz-234" value="方法返回地址" style="shape=partialRectangle;html=1;whiteSpace=wrap;connectable=0;fillColor=none;top=0;left=0;bottom=0;right=0;overflow=hidden;fontSize=20;" vertex="1" parent="BVIDle6o-jh2AiLQvKVz-233">
          <mxGeometry width="150" height="33" as="geometry" />
        </mxCell>
        <mxCell id="BVIDle6o-jh2AiLQvKVz-259" style="edgeStyle=orthogonalEdgeStyle;rounded=0;orthogonalLoop=1;jettySize=auto;html=1;entryX=0.5;entryY=0;entryDx=0;entryDy=0;fontSize=15;" edge="1" parent="1" source="BVIDle6o-jh2AiLQvKVz-235" target="BVIDle6o-jh2AiLQvKVz-253">
          <mxGeometry relative="1" as="geometry" />
        </mxCell>
        <mxCell id="BVIDle6o-jh2AiLQvKVz-235" value="&lt;span style=&quot;font-size: 20px ; font-weight: 400 ; background-color: rgb(255 , 255 , 255)&quot;&gt;iload_3&lt;/span&gt;" style="swimlane;html=1;startSize=30;horizontal=1;containerType=tree;newEdgeStyle={&quot;edgeStyle&quot;:&quot;elbowEdgeStyle&quot;,&quot;startArrow&quot;:&quot;none&quot;,&quot;endArrow&quot;:&quot;none&quot;};fontSize=15;" vertex="1" parent="1">
          <mxGeometry x="-720" y="1400" width="330" height="230" as="geometry" />
        </mxCell>
        <mxCell id="BVIDle6o-jh2AiLQvKVz-242" value="iload_3" style="edgeStyle=orthogonalEdgeStyle;rounded=0;orthogonalLoop=1;jettySize=auto;html=1;entryX=0.5;entryY=0;entryDx=0;entryDy=0;fontSize=15;dashed=1;" edge="1" parent="BVIDle6o-jh2AiLQvKVz-235" source="BVIDle6o-jh2AiLQvKVz-236" target="BVIDle6o-jh2AiLQvKVz-238">
          <mxGeometry relative="1" as="geometry" />
        </mxCell>
        <mxCell id="BVIDle6o-jh2AiLQvKVz-236" value="a=3&lt;br&gt;b=10&lt;br&gt;c=13" style="rounded=0;whiteSpace=wrap;html=1;fontSize=20;" vertex="1" parent="BVIDle6o-jh2AiLQvKVz-235">
          <mxGeometry x="240" y="40" width="70" height="70" as="geometry" />
        </mxCell>
        <mxCell id="BVIDle6o-jh2AiLQvKVz-238" value="13" style="rounded=0;whiteSpace=wrap;html=1;fontSize=20;" vertex="1" parent="BVIDle6o-jh2AiLQvKVz-235">
          <mxGeometry x="240" y="150" width="70" height="60" as="geometry" />
        </mxCell>
        <mxCell id="BVIDle6o-jh2AiLQvKVz-239" style="edgeStyle=orthogonalEdgeStyle;rounded=0;orthogonalLoop=1;jettySize=auto;html=1;entryX=0;entryY=0.5;entryDx=0;entryDy=0;fontSize=15;" edge="1" parent="1" source="BVIDle6o-jh2AiLQvKVz-227" target="BVIDle6o-jh2AiLQvKVz-236">
          <mxGeometry relative="1" as="geometry" />
        </mxCell>
        <mxCell id="BVIDle6o-jh2AiLQvKVz-240" style="edgeStyle=orthogonalEdgeStyle;rounded=0;orthogonalLoop=1;jettySize=auto;html=1;entryX=0;entryY=0.5;entryDx=0;entryDy=0;fontSize=15;" edge="1" parent="1" source="BVIDle6o-jh2AiLQvKVz-229" target="BVIDle6o-jh2AiLQvKVz-238">
          <mxGeometry relative="1" as="geometry" />
        </mxCell>
        <mxCell id="BVIDle6o-jh2AiLQvKVz-243" value="add()" style="swimlane;html=1;startSize=20;horizontal=1;containerType=tree;newEdgeStyle={&quot;edgeStyle&quot;:&quot;elbowEdgeStyle&quot;,&quot;startArrow&quot;:&quot;none&quot;,&quot;endArrow&quot;:&quot;none&quot;};gradientColor=#ffffff;fontSize=20;" vertex="1" parent="1">
          <mxGeometry x="-690" y="1770" width="150" height="160" as="geometry" />
        </mxCell>
        <mxCell id="BVIDle6o-jh2AiLQvKVz-244" value="" style="shape=table;html=1;whiteSpace=wrap;startSize=0;container=1;collapsible=0;childLayout=tableLayout;gradientColor=#ffffff;fontSize=15;" vertex="1" parent="BVIDle6o-jh2AiLQvKVz-243">
          <mxGeometry y="20" width="150" height="140" as="geometry" />
        </mxCell>
        <mxCell id="BVIDle6o-jh2AiLQvKVz-245" value="" style="shape=partialRectangle;html=1;whiteSpace=wrap;collapsible=0;dropTarget=0;pointerEvents=0;fillColor=none;top=0;left=0;bottom=0;right=0;points=[[0,0.5],[1,0.5]];portConstraint=eastwest;" vertex="1" parent="BVIDle6o-jh2AiLQvKVz-244">
          <mxGeometry width="150" height="35" as="geometry" />
        </mxCell>
        <mxCell id="BVIDle6o-jh2AiLQvKVz-246" value="局部变量表" style="shape=partialRectangle;html=1;whiteSpace=wrap;connectable=0;fillColor=none;top=0;left=0;bottom=0;right=0;overflow=hidden;fontSize=20;" vertex="1" parent="BVIDle6o-jh2AiLQvKVz-245">
          <mxGeometry width="150" height="35" as="geometry" />
        </mxCell>
        <mxCell id="BVIDle6o-jh2AiLQvKVz-247" value="" style="shape=partialRectangle;html=1;whiteSpace=wrap;collapsible=0;dropTarget=0;pointerEvents=0;fillColor=none;top=0;left=0;bottom=0;right=0;points=[[0,0.5],[1,0.5]];portConstraint=eastwest;" vertex="1" parent="BVIDle6o-jh2AiLQvKVz-244">
          <mxGeometry y="35" width="150" height="33" as="geometry" />
        </mxCell>
        <mxCell id="BVIDle6o-jh2AiLQvKVz-248" value="操作数栈" style="shape=partialRectangle;html=1;whiteSpace=wrap;connectable=0;fillColor=none;top=0;left=0;bottom=0;right=0;overflow=hidden;fontSize=20;" vertex="1" parent="BVIDle6o-jh2AiLQvKVz-247">
          <mxGeometry width="150" height="33" as="geometry" />
        </mxCell>
        <mxCell id="BVIDle6o-jh2AiLQvKVz-249" style="shape=partialRectangle;html=1;whiteSpace=wrap;collapsible=0;dropTarget=0;pointerEvents=0;fillColor=none;top=0;left=0;bottom=0;right=0;points=[[0,0.5],[1,0.5]];portConstraint=eastwest;" vertex="1" parent="BVIDle6o-jh2AiLQvKVz-244">
          <mxGeometry y="68" width="150" height="39" as="geometry" />
        </mxCell>
        <mxCell id="BVIDle6o-jh2AiLQvKVz-250" value="&lt;font style=&quot;font-size: 20px&quot;&gt;动态连接&lt;/font&gt;" style="shape=partialRectangle;html=1;whiteSpace=wrap;connectable=0;fillColor=none;top=0;left=0;bottom=0;right=0;overflow=hidden;" vertex="1" parent="BVIDle6o-jh2AiLQvKVz-249">
          <mxGeometry width="150" height="39" as="geometry" />
        </mxCell>
        <mxCell id="BVIDle6o-jh2AiLQvKVz-251" style="shape=partialRectangle;html=1;whiteSpace=wrap;collapsible=0;dropTarget=0;pointerEvents=0;fillColor=none;top=0;left=0;bottom=0;right=0;points=[[0,0.5],[1,0.5]];portConstraint=eastwest;" vertex="1" parent="BVIDle6o-jh2AiLQvKVz-244">
          <mxGeometry y="107" width="150" height="33" as="geometry" />
        </mxCell>
        <mxCell id="BVIDle6o-jh2AiLQvKVz-252" value="方法返回地址" style="shape=partialRectangle;html=1;whiteSpace=wrap;connectable=0;fillColor=none;top=0;left=0;bottom=0;right=0;overflow=hidden;fontSize=20;" vertex="1" parent="BVIDle6o-jh2AiLQvKVz-251">
          <mxGeometry width="150" height="33" as="geometry" />
        </mxCell>
        <mxCell id="BVIDle6o-jh2AiLQvKVz-253" value="&lt;span style=&quot;font-size: 20px ; font-weight: 400 ; background-color: rgb(255 , 255 , 255)&quot;&gt;ireturn&lt;/span&gt;" style="swimlane;html=1;startSize=30;horizontal=1;containerType=tree;newEdgeStyle={&quot;edgeStyle&quot;:&quot;elbowEdgeStyle&quot;,&quot;startArrow&quot;:&quot;none&quot;,&quot;endArrow&quot;:&quot;none&quot;};fontSize=15;" vertex="1" parent="1">
          <mxGeometry x="-720" y="1720" width="330" height="440" as="geometry" />
        </mxCell>
        <mxCell id="BVIDle6o-jh2AiLQvKVz-255" value="a=3&lt;br&gt;b=10&lt;br&gt;c=13" style="rounded=0;whiteSpace=wrap;html=1;fontSize=20;" vertex="1" parent="BVIDle6o-jh2AiLQvKVz-253">
          <mxGeometry x="240" y="40" width="70" height="70" as="geometry" />
        </mxCell>
        <mxCell id="BVIDle6o-jh2AiLQvKVz-280" style="edgeStyle=orthogonalEdgeStyle;rounded=0;orthogonalLoop=1;jettySize=auto;html=1;entryX=1;entryY=0.5;entryDx=0;entryDy=0;fontSize=15;" edge="1" parent="BVIDle6o-jh2AiLQvKVz-253" source="BVIDle6o-jh2AiLQvKVz-256" target="BVIDle6o-jh2AiLQvKVz-273">
          <mxGeometry relative="1" as="geometry" />
        </mxCell>
        <mxCell id="BVIDle6o-jh2AiLQvKVz-281" value="13" style="edgeLabel;html=1;align=center;verticalAlign=middle;resizable=0;points=[];fontSize=15;" vertex="1" connectable="0" parent="BVIDle6o-jh2AiLQvKVz-280">
          <mxGeometry x="-0.1224" relative="1" as="geometry">
            <mxPoint as="offset" />
          </mxGeometry>
        </mxCell>
        <mxCell id="BVIDle6o-jh2AiLQvKVz-256" value="" style="rounded=0;whiteSpace=wrap;html=1;fontSize=20;" vertex="1" parent="BVIDle6o-jh2AiLQvKVz-253">
          <mxGeometry x="240" y="150" width="70" height="60" as="geometry" />
        </mxCell>
        <mxCell id="BVIDle6o-jh2AiLQvKVz-269" value="main()" style="swimlane;html=1;startSize=20;horizontal=1;containerType=tree;newEdgeStyle={&quot;edgeStyle&quot;:&quot;elbowEdgeStyle&quot;,&quot;startArrow&quot;:&quot;none&quot;,&quot;endArrow&quot;:&quot;none&quot;};gradientColor=#ffffff;fontSize=20;" vertex="1" parent="BVIDle6o-jh2AiLQvKVz-253">
          <mxGeometry x="30" y="260" width="150" height="160" as="geometry" />
        </mxCell>
        <mxCell id="BVIDle6o-jh2AiLQvKVz-270" value="" style="shape=table;html=1;whiteSpace=wrap;startSize=0;container=1;collapsible=0;childLayout=tableLayout;gradientColor=#ffffff;fontSize=15;" vertex="1" parent="BVIDle6o-jh2AiLQvKVz-269">
          <mxGeometry y="20" width="150" height="140" as="geometry" />
        </mxCell>
        <mxCell id="BVIDle6o-jh2AiLQvKVz-271" value="" style="shape=partialRectangle;html=1;whiteSpace=wrap;collapsible=0;dropTarget=0;pointerEvents=0;fillColor=none;top=0;left=0;bottom=0;right=0;points=[[0,0.5],[1,0.5]];portConstraint=eastwest;" vertex="1" parent="BVIDle6o-jh2AiLQvKVz-270">
          <mxGeometry width="150" height="35" as="geometry" />
        </mxCell>
        <mxCell id="BVIDle6o-jh2AiLQvKVz-272" value="局部变量表" style="shape=partialRectangle;html=1;whiteSpace=wrap;connectable=0;fillColor=none;top=0;left=0;bottom=0;right=0;overflow=hidden;fontSize=20;" vertex="1" parent="BVIDle6o-jh2AiLQvKVz-271">
          <mxGeometry width="150" height="35" as="geometry" />
        </mxCell>
        <mxCell id="BVIDle6o-jh2AiLQvKVz-273" value="" style="shape=partialRectangle;html=1;whiteSpace=wrap;collapsible=0;dropTarget=0;pointerEvents=0;fillColor=none;top=0;left=0;bottom=0;right=0;points=[[0,0.5],[1,0.5]];portConstraint=eastwest;" vertex="1" parent="BVIDle6o-jh2AiLQvKVz-270">
          <mxGeometry y="35" width="150" height="33" as="geometry" />
        </mxCell>
        <mxCell id="BVIDle6o-jh2AiLQvKVz-274" value="操作数栈" style="shape=partialRectangle;html=1;whiteSpace=wrap;connectable=0;fillColor=none;top=0;left=0;bottom=0;right=0;overflow=hidden;fontSize=20;" vertex="1" parent="BVIDle6o-jh2AiLQvKVz-273">
          <mxGeometry width="150" height="33" as="geometry" />
        </mxCell>
        <mxCell id="BVIDle6o-jh2AiLQvKVz-275" style="shape=partialRectangle;html=1;whiteSpace=wrap;collapsible=0;dropTarget=0;pointerEvents=0;fillColor=none;top=0;left=0;bottom=0;right=0;points=[[0,0.5],[1,0.5]];portConstraint=eastwest;" vertex="1" parent="BVIDle6o-jh2AiLQvKVz-270">
          <mxGeometry y="68" width="150" height="39" as="geometry" />
        </mxCell>
        <mxCell id="BVIDle6o-jh2AiLQvKVz-276" value="&lt;font style=&quot;font-size: 20px&quot;&gt;动态连接&lt;/font&gt;" style="shape=partialRectangle;html=1;whiteSpace=wrap;connectable=0;fillColor=none;top=0;left=0;bottom=0;right=0;overflow=hidden;" vertex="1" parent="BVIDle6o-jh2AiLQvKVz-275">
          <mxGeometry width="150" height="39" as="geometry" />
        </mxCell>
        <mxCell id="BVIDle6o-jh2AiLQvKVz-277" style="shape=partialRectangle;html=1;whiteSpace=wrap;collapsible=0;dropTarget=0;pointerEvents=0;fillColor=none;top=0;left=0;bottom=0;right=0;points=[[0,0.5],[1,0.5]];portConstraint=eastwest;" vertex="1" parent="BVIDle6o-jh2AiLQvKVz-270">
          <mxGeometry y="107" width="150" height="33" as="geometry" />
        </mxCell>
        <mxCell id="BVIDle6o-jh2AiLQvKVz-278" value="方法返回地址" style="shape=partialRectangle;html=1;whiteSpace=wrap;connectable=0;fillColor=none;top=0;left=0;bottom=0;right=0;overflow=hidden;fontSize=20;" vertex="1" parent="BVIDle6o-jh2AiLQvKVz-277">
          <mxGeometry width="150" height="33" as="geometry" />
        </mxCell>
        <mxCell id="BVIDle6o-jh2AiLQvKVz-257" style="edgeStyle=orthogonalEdgeStyle;rounded=0;orthogonalLoop=1;jettySize=auto;html=1;entryX=0;entryY=0.5;entryDx=0;entryDy=0;fontSize=15;" edge="1" parent="1" source="BVIDle6o-jh2AiLQvKVz-245" target="BVIDle6o-jh2AiLQvKVz-255">
          <mxGeometry relative="1" as="geometry" />
        </mxCell>
        <mxCell id="BVIDle6o-jh2AiLQvKVz-258" style="edgeStyle=orthogonalEdgeStyle;rounded=0;orthogonalLoop=1;jettySize=auto;html=1;entryX=0;entryY=0.5;entryDx=0;entryDy=0;fontSize=15;" edge="1" parent="1" source="BVIDle6o-jh2AiLQvKVz-247" target="BVIDle6o-jh2AiLQvKVz-256">
          <mxGeometry relative="1" as="geometry" />
        </mxCell>
        <mxCell id="BVIDle6o-jh2AiLQvKVz-279" value="ireturn" style="edgeStyle=orthogonalEdgeStyle;rounded=0;orthogonalLoop=1;jettySize=auto;html=1;entryX=0.5;entryY=0;entryDx=0;entryDy=0;fontSize=15;exitX=1;exitY=0.5;exitDx=0;exitDy=0;" edge="1" parent="1" source="BVIDle6o-jh2AiLQvKVz-251" target="BVIDle6o-jh2AiLQvKVz-269">
          <mxGeometry relative="1" as="geometry" />
        </mxCell>
      </root>
    </mxGraphModel>
  </diagram>
</mxfile>
